<?xml version="1.0" encoding="utf-8"?>
<!-- Generator: Adobe Illustrator 24.1.1, SVG Export Plug-In . SVG Version: 6.00 Build 0)  -->
<svg version="1.1" id="Layer_1" xmlns="http://www.w3.org/2000/svg" xmlns:xlink="http://www.w3.org/1999/xlink" x="0px" y="0px"
	 viewBox="0 0 247 232.4" style="enable-background:new 0 0 247 232.4;" xml:space="preserve">
<style type="text/css">
	.st0{fill:#648A69;}
	.st1{fill:#FFFFFF;}
</style>
<g id="Layer_2_1_">
	<rect x="0" y="0" class="st0" width="247" height="232.4"/>
</g>
<g id="Layer_1_1_">
	<g id="surface1">
		<path class="st1" d="M149.7,133.4c16.3-23.1,10.9-55-12.2-71.3s-55-10.9-71.3,12.2s-10.9,55,12.2,71.3
			c16.5,11.6,38.2,12.5,55.6,2.3l37.7,37.5c4.1,4.3,10.8,4.5,15.1,0.4s4.5-10.8,0.4-15.1c-0.1-0.1-0.3-0.3-0.4-0.4L149.7,133.4z
			 M108,136.9c-18.2,0-33-14.8-33-33s14.8-33,33-33s33,14.7,33,32.9C140.9,122.1,126.2,136.9,108,136.9L108,136.9z"/>
	</g>
</g>
</svg>
